<?xml version="1.0" standalone="no"?>
<!DOCTYPE svg PUBLIC "-//W3C//DTD SVG 20010904//EN"
 "http://www.w3.org/TR/2001/REC-SVG-20010904/DTD/svg10.dtd">
<svg version="1.0" xmlns="http://www.w3.org/2000/svg"
 width="3437.000000pt" height="5000.000000pt" viewBox="0 0 3437.000000 5000.000000"
 preserveAspectRatio="xMidYMid meet">

<g transform="translate(0.000000,5000.000000) scale(0.100000,-0.100000)"
fill="#000000" stroke="none">
<path d="M24841 44206 c-8 -9 -11 -81 -9 -237 l3 -224 29 -3 c16 -2 32 2 37
10 14 22 11 442 -3 456 -16 16 -43 15 -57 -2z"/>
<path d="M25356 44088 c-26 -40 -176 -355 -176 -370 0 -19 20 -38 42 -38 13 0
41 49 108 187 49 102 90 194 90 204 0 16 -27 39 -44 39 -3 0 -12 -10 -20 -22z"/>
<path d="M24327 44094 c-17 -17 -1 -57 89 -231 81 -156 99 -184 116 -181 12 2
26 11 32 21 9 15 -6 51 -85 205 -81 158 -100 187 -121 190 -13 2 -27 0 -31 -4z"/>
<path d="M23911 43751 c-7 -13 -7 -23 2 -33 14 -18 325 -268 333 -268 18 0 44
24 44 39 0 26 -316 281 -347 281 -12 0 -27 -8 -32 -19z"/>
<path d="M25613 43641 c-88 -71 -164 -134 -167 -139 -7 -12 22 -52 38 -52 8 0
87 59 177 131 138 110 164 135 164 158 0 20 -5 27 -25 29 -19 2 -63 -28 -187
-127z"/>
<path d="M24745 43706 c-83 -16 -174 -51 -252 -97 -77 -46 -200 -170 -246
-249 -165 -283 -112 -650 130 -885 287 -281 778 -254 1041 57 60 71 122 191
148 288 24 87 25 262 1 350 -97 366 -463 605 -822 536z m251 -77 c79 -14 206
-75 275 -132 146 -120 239 -314 239 -502 0 -286 -207 -548 -490 -621 -87 -22
-237 -22 -315 1 -179 52 -316 166 -405 336 -56 109 -73 189 -67 324 7 163 55
278 168 400 79 86 233 171 354 195 60 12 174 11 241 -1z"/>
<path d="M23692 43288 c-19 -19 -14 -47 11 -58 41 -18 380 -91 406 -88 22 2
26 8 26 33 l0 30 -180 42 c-234 54 -247 57 -263 41z"/>
<path d="M25811 43254 c-101 -23 -190 -45 -198 -48 -9 -4 -13 -16 -11 -33 2
-22 9 -29 29 -31 26 -3 365 70 407 88 39 17 22 71 -22 69 -12 -1 -104 -21
-205 -45z"/>
<path d="M23888 42816 c-102 -24 -191 -47 -197 -50 -17 -11 -13 -56 6 -63 15
-6 368 68 421 88 18 7 23 15 20 37 -4 39 -32 38 -250 -12z"/>
<path d="M25607 42853 c-10 -10 -8 -51 2 -58 15 -9 391 -95 417 -95 17 0 25 7
30 26 4 14 3 29 -2 34 -10 10 -390 100 -421 100 -11 0 -23 -3 -26 -7z"/>
<path d="M25448 42549 c-38 -22 -17 -46 154 -183 135 -107 177 -136 197 -134
19 2 27 9 28 28 2 21 -17 41 -124 125 -167 133 -224 175 -232 175 -3 0 -14 -5
-23 -11z"/>
<path d="M24073 42413 c-89 -70 -164 -134 -168 -142 -8 -19 13 -41 40 -41 15
0 82 48 182 128 128 103 158 132 158 152 0 19 -6 26 -26 28 -20 2 -61 -25
-186 -125z"/>
<path d="M25182 42328 c-19 -19 -15 -33 44 -156 31 -65 71 -149 90 -188 40
-86 54 -100 84 -84 31 17 25 36 -80 253 -92 189 -106 207 -138 175z"/>
<path d="M10190 42319 c-166 -27 -337 -171 -396 -334 l-22 -60 -93 -1 c-156
-2 -265 -48 -375 -158 -109 -109 -153 -216 -154 -371 0 -202 103 -376 279
-469 123 -64 139 -66 781 -66 640 0 647 1 772 67 126 66 222 186 263 327 24
82 17 249 -14 327 -63 163 -211 292 -378 331 -51 12 -52 14 -72 68 -61 166
-214 298 -388 335 -75 16 -121 17 -203 4z m193 -114 c85 -22 134 -51 197 -114
63 -63 97 -128 114 -213 10 -54 12 -58 39 -58 62 0 167 -32 224 -69 74 -48
118 -98 157 -181 29 -61 31 -72 31 -180 0 -107 -2 -119 -30 -175 -34 -69 -122
-163 -183 -194 -97 -50 -117 -51 -727 -51 -609 0 -630 1 -726 50 -151 78 -246
267 -219 435 30 186 169 325 357 357 71 12 93 9 233 -24 11 -2 16 13 22 62 31
248 274 417 511 355z"/>
<path d="M24416 42136 c-53 -101 -96 -194 -96 -205 0 -11 10 -26 22 -32 30
-16 41 -1 146 207 71 142 85 177 76 191 -6 10 -20 19 -31 21 -18 3 -36 -26
-117 -182z"/>
<path d="M24841 42246 c-8 -9 -11 -79 -9 -231 3 -195 5 -219 21 -229 12 -8 22
-8 35 0 15 10 17 34 20 229 2 225 -1 245 -38 245 -10 0 -23 -6 -29 -14z"/>
<path d="M16346 41955 c-154 -42 -287 -153 -355 -295 -23 -46 -41 -90 -41 -97
0 -7 -12 -15 -27 -19 -189 -41 -332 -150 -407 -307 -57 -121 -71 -247 -41
-376 45 -190 209 -356 401 -406 87 -23 1301 -23 1389 0 192 50 353 217 400
416 63 270 -92 552 -358 647 -60 22 -90 26 -178 26 l-105 1 -27 72 c-65 171
-221 306 -395 342 -70 15 -195 13 -256 -4z m326 -137 c132 -66 224 -191 247
-337 6 -35 13 -66 15 -69 3 -2 34 3 70 13 327 89 636 -214 551 -540 -40 -153
-141 -261 -297 -317 -62 -23 -68 -23 -640 -26 -331 -2 -607 1 -645 6 -177 25
-315 129 -374 282 -27 68 -36 201 -19 267 15 63 53 138 96 189 68 84 211 154
313 154 l49 0 7 43 c28 166 148 307 304 359 42 14 80 17 152 15 88 -2 103 -6
171 -39z"/>
<path d="M20202 40756 c-172 -42 -331 -190 -386 -361 l-17 -50 -107 -1 c-128
0 -202 -22 -304 -91 -121 -80 -203 -203 -234 -353 -59 -281 123 -570 406 -645
83 -22 1299 -22 1384 0 99 26 189 80 263 159 106 111 153 229 153 381 0 156
-51 279 -164 391 -79 79 -160 126 -257 148 -34 8 -62 16 -64 18 -1 2 -10 26
-19 55 -52 158 -212 303 -382 347 -73 19 -198 19 -272 2z m281 -119 c151 -55
257 -178 287 -334 l12 -60 67 -6 c164 -12 311 -121 373 -277 18 -45 22 -75 23
-165 0 -126 -17 -184 -83 -270 -77 -101 -180 -158 -321 -176 -94 -12 -1112
-10 -1201 2 -139 19 -280 120 -341 244 -110 223 -16 493 209 602 94 45 208 55
311 29 35 -10 66 -15 69 -12 3 3 9 34 14 68 22 163 141 304 303 360 75 26 198
24 278 -5z"/>
<path d="M9640 40561 c-5 -11 -10 -82 -10 -159 0 -122 2 -141 18 -155 26 -23
58 -21 76 5 23 33 23 289 0 312 -22 23 -71 20 -84 -3z"/>
<path d="M10047 40562 c-15 -16 -17 -52 -17 -295 0 -264 1 -278 20 -297 24
-24 38 -25 68 -4 22 15 22 17 22 295 0 174 -4 288 -10 300 -14 25 -61 25 -83
1z"/>
<path d="M10450 40561 c-5 -11 -10 -82 -10 -159 0 -122 2 -141 18 -155 26 -23
58 -21 76 5 23 33 23 289 0 312 -22 23 -71 20 -84 -3z"/>
<path d="M10857 40562 c-15 -16 -17 -52 -17 -295 0 -264 1 -278 20 -297 24
-24 38 -25 68 -4 22 15 22 17 22 303 0 210 -3 290 -12 299 -18 18 -63 14 -81
-6z"/>
<path d="M9640 39991 c-6 -12 -10 -126 -10 -300 0 -278 0 -280 22 -295 30 -21
44 -20 68 4 19 19 20 33 20 298 0 258 -1 280 -18 295 -25 23 -69 22 -82 -2z"/>
<path d="M10450 39991 c-6 -12 -10 -126 -10 -300 0 -278 0 -280 22 -295 30
-21 44 -20 68 4 19 19 20 33 20 299 0 241 -2 282 -16 295 -22 23 -71 20 -84
-3z"/>
<path d="M10046 39714 c-13 -12 -16 -41 -16 -155 0 -126 2 -141 20 -159 24
-24 38 -25 68 -4 21 14 22 22 22 163 0 101 -4 151 -12 159 -17 17 -64 15 -82
-4z"/>
<path d="M10856 39714 c-13 -12 -16 -41 -16 -155 0 -126 2 -141 20 -159 24
-24 38 -25 68 -4 21 14 22 22 22 163 0 101 -4 151 -12 159 -17 17 -64 15 -82
-4z"/>
<path d="M10485 38607 c-22 -13 -82 -51 -134 -85 l-93 -62 -1414 0 -1413 0
-99 -112 c-352 -402 -1305 -1513 -1314 -1534 -16 -35 15 -64 76 -71 l46 -6 0
-2242 c0 -2159 1 -2243 18 -2258 17 -16 251 -17 3155 -17 3124 0 3137 0 3157
20 20 20 20 33 20 2375 0 1295 2 2355 4 2355 3 0 21 -10 41 -21 113 -67 267
21 268 153 2 103 -9 114 -347 337 -166 109 -589 389 -941 622 -932 616 -856
569 -929 569 -45 0 -71 -6 -101 -23z m903 -594 c422 -279 885 -584 1029 -679
144 -95 266 -181 272 -192 17 -33 13 -51 -19 -84 -23 -22 -36 -29 -54 -24 -13
3 -470 301 -1016 661 -614 405 -1001 655 -1016 655 -15 0 -267 -160 -651 -414
-1177 -777 -1335 -881 -1360 -894 -20 -11 -31 -11 -54 -1 -53 21 -66 80 -26
116 12 12 317 216 677 454 360 237 815 538 1010 667 195 129 364 238 375 243
11 4 30 6 43 3 12 -2 368 -232 790 -511z m-1308 333 c-8 -8 -382 -256 -830
-552 -448 -295 -824 -544 -834 -553 -26 -22 -56 -90 -56 -129 0 -65 44 -138
103 -169 47 -24 131 -19 182 12 l45 26 0 -66 0 -65 -1251 0 c-982 0 -1249 3
-1243 12 5 7 237 278 517 603 281 324 569 658 641 742 l131 152 1305 1 c1127
0 1302 -2 1290 -14z m1405 -707 l895 -591 0 -2359 0 -2359 -1790 0 -1790 0 0
2363 0 2363 888 587 c488 323 890 587 894 587 4 0 411 -266 903 -591z m-2795
-3104 l0 -2205 -305 0 -305 0 0 911 c0 608 -3 917 -10 930 -10 18 -28 19 -600
19 -522 0 -590 -2 -604 -16 -14 -14 -16 -112 -16 -930 l0 -914 -300 0 -300 0
0 2205 0 2205 1220 0 1220 0 0 -2205z m-720 -1325 l0 -880 -505 0 -505 0 0
880 0 880 505 0 505 0 0 -880z"/>
<path d="M10532 37829 c-128 -17 -268 -128 -312 -245 -91 -245 53 -499 311
-545 55 -10 77 -9 141 5 133 30 226 106 286 233 24 51 27 70 27 158 -1 112
-15 157 -80 245 -79 108 -232 169 -373 149z m8 -224 l0 -115 -115 0 c-133 0
-134 1 -85 86 33 58 77 99 135 125 66 30 65 31 65 -96z m197 79 c54 -31 108
-95 127 -150 l15 -44 -115 0 -114 0 0 116 c0 131 -2 129 87 78z m-197 -419 c0
-128 1 -126 -66 -96 -58 27 -112 77 -140 132 -40 79 -40 79 91 79 l115 0 0
-115z m330 86 c-12 -42 -28 -68 -68 -113 -32 -36 -116 -88 -142 -88 -6 0 -10
43 -10 115 l0 115 114 0 115 0 -9 -29z"/>
<path d="M9292 36388 c-9 -9 -12 -159 -12 -614 0 -534 2 -604 16 -618 13 -14
62 -16 383 -16 344 0 369 1 384 18 15 17 17 74 17 611 0 389 -4 599 -10 612
-10 18 -25 19 -388 19 -281 0 -381 -3 -390 -12z m678 -313 l0 -225 -290 0
-290 0 0 225 0 225 290 0 290 0 0 -225z m0 -580 l0 -245 -290 0 -290 0 0 245
0 245 290 0 290 0 0 -245z"/>
<path d="M10200 36381 c-6 -13 -10 -223 -10 -614 0 -563 1 -595 18 -610 17
-15 58 -17 384 -17 341 0 366 1 381 18 15 17 17 74 17 618 0 453 -3 603 -12
612 -9 9 -109 12 -390 12 -363 0 -378 -1 -388 -19z m680 -306 l0 -225 -290 0
-290 0 0 225 0 225 290 0 290 0 0 -225z m0 -580 l0 -245 -290 0 -290 0 0 245
0 245 290 0 290 0 0 -245z"/>
<path d="M11120 36381 c-6 -13 -10 -223 -10 -614 0 -563 1 -595 18 -610 17
-15 58 -17 385 -17 319 0 368 2 381 16 14 14 16 84 16 618 0 455 -3 605 -12
614 -9 9 -109 12 -390 12 -363 0 -378 -1 -388 -19z m680 -306 l0 -225 -290 0
-290 0 0 225 0 225 290 0 290 0 0 -225z m0 -580 l0 -245 -290 0 -290 0 0 245
0 245 290 0 290 0 0 -245z"/>
<path d="M9276 34608 c-14 -20 -16 -94 -16 -608 0 -514 2 -588 16 -608 l15
-22 373 0 c276 0 375 3 384 12 17 17 17 1219 0 1236 -9 9 -108 12 -384 12
l-373 0 -15 -22z m682 -305 l2 -223 -295 0 -295 0 0 218 c0 120 3 222 7 225 4
4 135 6 292 5 l286 -3 3 -222z m0 -580 l2 -243 -295 0 -295 0 0 238 c0 131 3
242 7 245 4 4 135 6 292 5 l286 -3 3 -242z"/>
<path d="M10192 34618 c-17 -17 -17 -1219 0 -1236 9 -9 108 -12 384 -12 l373
0 15 22 c14 20 16 94 16 608 0 514 -2 588 -16 608 l-15 22 -373 0 c-276 0
-375 -3 -384 -12z m678 -313 l0 -225 -290 0 -290 0 0 225 0 225 290 0 290 0 0
-225z m0 -580 l0 -245 -290 0 -290 0 0 245 0 245 290 0 290 0 0 -245z"/>
<path d="M11112 34618 c-9 -9 -12 -160 -12 -620 0 -590 1 -608 19 -618 13 -6
152 -10 385 -10 l365 0 15 22 c14 20 16 94 16 608 0 514 -2 588 -16 608 l-15
22 -373 0 c-276 0 -375 -3 -384 -12z m676 -315 l2 -223 -295 0 -295 0 0 218
c0 120 3 222 7 225 4 4 135 6 292 5 l286 -3 3 -222z m2 -578 l0 -245 -295 0
-295 0 0 238 c0 131 3 242 7 245 3 4 136 7 295 7 l288 0 0 -245z"/>
<path d="M6611 36386 c-9 -11 -12 -119 -11 -412 0 -354 2 -400 17 -416 15 -17
59 -18 865 -18 835 0 848 0 868 20 19 19 20 33 20 411 0 250 -4 397 -10 410
-10 19 -31 19 -874 19 -737 0 -865 -2 -875 -14z m1649 -106 c0 -20 -7 -20
-774 -20 -506 0 -777 3 -781 10 -3 6 -3 15 0 20 4 7 275 10 781 10 767 0 774
0 774 -20z m-830 -380 l0 -250 -362 2 -363 3 -3 248 -2 247 365 0 365 0 0
-250z m830 0 l0 -250 -360 0 -360 0 0 250 0 250 360 0 360 0 0 -250z"/>
<path d="M23672 38390 c-89 -54 -99 -194 -17 -258 l25 -20 0 -350 0 -350 -277
-182 c-302 -198 -329 -219 -349 -267 -68 -159 99 -314 254 -235 l42 22 0 -748
0 -749 -141 -374 c-113 -300 -139 -379 -132 -399 8 -25 10 -25 141 -30 l132
-5 3 -1093 c2 -1070 2 -1094 21 -1108 17 -12 289 -14 1878 -14 1845 0 1858 0
1878 20 20 20 20 33 20 1110 l0 1090 128 0 c135 0 152 5 152 46 0 11 -63 189
-140 394 l-140 373 0 748 c0 412 3 749 6 749 3 0 18 -9 33 -19 38 -28 100 -42
141 -32 126 28 188 158 127 266 -25 46 -43 58 -1327 905 l-795 525 -70 3 -70
4 -420 -277 c-231 -153 -430 -284 -442 -292 l-23 -15 0 141 0 142 32 40 c60
75 46 183 -32 237 -32 22 -39 22 -319 22 -268 0 -288 -1 -319 -20z m576 -96
c26 -18 28 -50 5 -76 -15 -16 -37 -18 -264 -18 -268 0 -279 2 -279 55 0 53 11
55 273 55 203 0 246 -3 265 -16z m1264 -137 c128 -85 467 -308 753 -497 286
-189 646 -426 800 -527 154 -102 286 -192 293 -201 18 -23 15 -66 -6 -93 -31
-38 -72 -30 -165 33 -45 31 -489 325 -987 654 -761 503 -911 599 -940 599 -30
0 -186 -100 -1025 -654 -699 -463 -998 -654 -1017 -654 -50 0 -83 46 -66 95 8
21 217 164 991 675 1075 710 1095 723 1119 723 9 0 121 -69 250 -153z m-1312
-234 l0 -168 -196 -130 c-108 -71 -200 -131 -205 -133 -5 -2 -9 127 -9 297 l0
301 205 0 205 0 0 -167z m1422 -148 c189 -125 584 -386 878 -580 l535 -354 3
-775 2 -776 -1790 0 -1790 0 0 769 0 769 143 93 c78 51 481 318 896 592 415
274 760 496 767 493 7 -3 167 -107 356 -231z m1472 -2672 c135 -356 203 -543
198 -547 -8 -9 -4082 -7 -4082 1 -1 5 50 144 112 311 l113 302 1816 0 1817 0
26 -67z m-54 -1708 l0 -1055 -1065 0 -1065 0 0 732 c0 667 -1 733 -17 750 -15
17 -42 18 -451 18 -391 0 -437 -2 -454 -17 -17 -15 -18 -52 -18 -750 l0 -733
-252 2 -253 3 -3 1040 c-1 572 0 1046 3 1053 3 9 371 12 1790 12 l1785 0 0
-1055z m-2240 -360 l0 -695 -362 2 -363 3 -3 680 c-1 374 0 686 3 693 3 9 86
12 365 12 l360 0 0 -695z"/>
<path d="M25174 37605 c-81 -18 -137 -47 -199 -106 -117 -111 -153 -276 -94
-434 27 -73 118 -171 192 -208 201 -98 436 -19 534 181 36 73 38 80 38 176 0
93 -3 107 -32 168 -57 121 -171 206 -304 228 -35 5 -66 10 -69 9 -3 0 -33 -7
-66 -14z m26 -220 l0 -115 -115 0 c-103 0 -115 2 -115 18 0 29 57 118 97 151
31 26 97 57 126 60 4 1 7 -51 7 -114z m191 84 c58 -29 121 -106 139 -170 l9
-29 -115 0 -114 0 0 116 c0 130 -4 126 81 83z m-191 -424 c0 -127 1 -126 -65
-96 -58 26 -102 67 -135 125 -49 85 -48 86 85 86 l115 0 0 -115z m334 93 c-28
-93 -109 -174 -201 -202 -23 -7 -23 -7 -23 108 l0 116 116 0 c115 0 115 0 108
-22z"/>
<path d="M23980 36440 c-19 -19 -20 -33 -20 -343 0 -276 2 -326 16 -345 15
-22 15 -22 353 -22 249 0 340 3 349 12 9 9 12 100 12 349 0 338 0 338 -22 353
-19 14 -69 16 -345 16 -310 0 -324 -1 -343 -20z m600 -110 c0 -19 -7 -20 -255
-20 -248 0 -255 1 -255 20 0 19 7 20 255 20 248 0 255 -1 255 -20z m0 -310 l0
-180 -255 0 -255 0 0 180 0 180 255 0 255 0 0 -180z"/>
<path d="M25862 36444 c-22 -15 -22 -15 -22 -349 0 -290 2 -336 16 -349 13
-14 59 -16 348 -16 310 0 334 1 349 18 15 17 17 55 17 345 0 314 -1 328 -20
347 -19 19 -33 20 -343 20 -276 0 -326 -2 -345 -16z m598 -114 c0 -19 -7 -20
-255 -20 -248 0 -255 1 -255 20 0 19 7 20 255 20 248 0 255 -1 255 -20z m0
-310 l0 -180 -255 0 -255 0 0 180 0 180 255 0 255 0 0 -180z"/>
<path d="M25396 34108 c-14 -19 -16 -78 -16 -440 0 -405 1 -419 20 -438 20
-20 33 -20 576 -20 364 0 562 4 575 10 18 10 19 26 19 448 0 327 -3 441 -12
450 -9 9 -151 12 -579 12 l-568 0 -15 -22z m1074 -113 l0 -25 -490 0 -490 0 0
25 0 25 490 0 490 0 0 -25z m0 -405 l0 -270 -490 0 -490 0 0 270 0 270 490 0
490 0 0 -270z"/>
<path d="M16722 36173 c-15 -13 -65 -163 -182 -553 -89 -294 -198 -652 -241
-795 -43 -143 -79 -272 -79 -287 0 -38 25 -48 124 -48 l86 0 0 -371 0 -371
-23 14 c-12 9 -263 174 -557 368 -294 194 -549 358 -567 363 -22 7 -44 7 -65
0 -18 -5 -215 -131 -438 -278 -223 -148 -488 -323 -590 -390 -102 -67 -196
-134 -208 -150 -39 -49 -22 -148 29 -176 46 -24 81 -28 120 -15 l39 14 0 -607
c0 -533 2 -609 16 -629 l15 -22 1054 0 1054 0 15 22 c14 20 16 96 16 629 l0
607 45 -17 45 -16 0 -596 c0 -490 2 -599 14 -608 9 -8 739 -11 2752 -11 1506
0 3023 0 3371 0 563 0 633 1 647 16 14 14 16 79 16 595 0 566 0 579 -20 599
-20 20 -33 20 -630 20 l-610 0 0 505 0 505 100 0 c94 0 100 1 115 24 19 28 51
-86 -275 986 -123 408 -208 670 -218 678 -12 9 -525 12 -2483 12 -2335 0
-2468 -1 -2487 -17z m4917 -155 c11 -35 57 -184 101 -333 103 -341 320 -1056
325 -1072 3 -10 -136 -13 -678 -13 l-682 0 -660 436 c-841 557 -789 524 -846
524 -40 0 -59 -8 -135 -58 -217 -143 -901 -594 -1123 -741 l-244 -161 -673 0
c-399 0 -674 4 -674 9 0 5 71 245 159 533 87 287 187 616 221 731 l63 207
2413 0 2412 0 21 -62z m-1995 -848 c1082 -714 1051 -693 1051 -719 0 -13 -8
-29 -17 -34 -13 -9 -67 23 -285 167 -822 545 -1176 776 -1192 776 -9 0 -269
-166 -577 -369 -929 -614 -884 -586 -903 -574 -9 6 -16 21 -16 34 0 20 106 94
739 512 512 338 746 487 761 485 13 -2 210 -127 439 -278z m112 -296 l554
-366 0 -1074 0 -1074 -320 0 -320 0 0 689 c0 578 -2 690 -14 700 -10 9 -136
12 -463 11 -408 0 -449 -2 -460 -17 -10 -13 -13 -169 -13 -700 l0 -683 -317 2
-318 3 -2 1035 c-1 569 1 1051 4 1072 5 35 13 42 366 274 199 131 448 296 552
366 105 69 192 127 193 127 2 1 253 -164 558 -365z m-2166 -420 c0 -96 100
-172 188 -143 20 6 72 36 115 65 43 30 81 54 83 54 2 0 3 -467 2 -1037 l-3
-1038 -720 0 -720 0 -2 1055 c-2 580 -1 1061 2 1068 3 9 119 12 530 12 l525 0
0 -36z m4267 -976 c-4 -557 -7 -1039 -7 -1071 l0 -57 -712 2 -713 3 -3 1038
c-1 570 0 1037 3 1037 2 0 45 -27 95 -60 109 -71 141 -79 203 -52 56 25 79 58
85 123 l5 49 525 0 525 0 -6 -1012z m-6150 616 c246 -163 510 -337 586 -387
97 -63 137 -94 134 -106 -2 -9 -8 -15 -14 -14 -6 1 -264 170 -574 374 -310
205 -572 374 -581 377 -16 4 -109 -56 -932 -600 -131 -87 -242 -155 -247 -152
-5 3 -9 11 -9 17 0 11 1165 787 1182 787 4 0 209 -133 455 -296z m522 -1131
l1 -613 -120 0 -120 0 0 513 c0 386 -3 516 -12 525 -9 9 -185 12 -730 12 -699
0 -718 0 -728 -19 -6 -13 -10 -196 -10 -525 l0 -506 -115 0 -115 0 0 614 0
613 486 321 486 320 488 -322 489 -321 0 -612z m3339 45 l2 -648 -370 0 -370
0 0 650 0 650 368 -2 367 -3 3 -647z m2502 -149 c0 -481 -1 -510 -17 -507 -17
3 -18 37 -21 511 -2 502 -2 507 18 507 20 0 20 -6 20 -511z m180 2 l0 -508
-32 1 -33 1 -3 508 -2 507 35 0 35 0 0 -509z m175 -1 l0 -505 -30 0 -30 0 -3
508 -2 508 32 -3 33 -3 0 -505z m176 0 l-1 -505 -30 -3 -30 -3 0 511 0 511 30
-3 31 -3 0 -505z m177 3 l-3 -508 -30 0 -30 0 -3 508 -2 507 35 0 35 0 -2
-507z m180 0 l-3 -508 -30 0 -30 0 -3 508 -2 507 35 0 35 0 -2 -507z m162 -1
l0 -508 -25 0 -25 0 0 508 0 508 25 0 25 0 0 -508z m-7240 408 l0 -30 -630 0
-630 0 0 30 0 30 630 0 630 0 0 -30z m0 -140 l0 -40 -630 0 -630 0 0 35 0 35
628 3 c345 1 628 3 630 5 1 1 2 -16 2 -38z m0 -160 l0 -40 -630 0 -630 0 0 40
0 40 630 0 630 0 0 -40z m0 -150 l0 -40 -630 0 -630 0 0 40 0 40 630 0 630 0
0 -40z m0 -155 l0 -35 -630 0 -630 0 0 35 0 35 630 0 630 0 0 -35z m0 -155 l0
-40 -627 3 -628 2 -3 38 -3 37 630 0 631 0 0 -40z m0 -135 l0 -25 -630 0 -630
0 0 25 0 25 630 0 630 0 0 -25z"/>
<path d="M19100 34904 c-30 -8 -73 -25 -95 -39 -58 -34 -132 -117 -163 -183
-24 -50 -27 -69 -27 -162 0 -98 2 -110 32 -170 41 -83 111 -153 193 -193 60
-29 73 -32 165 -32 92 0 105 3 167 32 82 39 154 108 191 183 152 312 -128 654
-463 564z m50 -219 l0 -115 -116 0 c-115 0 -115 0 -108 23 26 86 65 135 138
177 85 49 86 48 86 -85z m174 101 c52 -22 117 -86 142 -141 13 -27 24 -56 24
-62 0 -10 -30 -13 -115 -13 l-115 0 0 115 c0 127 0 128 64 101z m-174 -441 l0
-115 -25 10 c-96 37 -162 98 -189 176 l-15 44 115 0 114 0 0 -115z m340 106
c0 -48 -88 -159 -152 -192 -74 -38 -78 -34 -78 91 l0 110 115 0 c63 0 115 -4
115 -9z"/>
<path d="M16906 34084 c-14 -14 -16 -72 -16 -492 0 -416 2 -480 16 -500 15
-22 15 -22 349 -22 290 0 336 2 349 16 14 14 16 73 16 503 0 365 -3 490 -12
499 -9 9 -100 12 -349 12 -294 0 -340 -2 -353 -16z m604 -494 l0 -410 -255 0
-255 0 0 410 0 410 255 0 255 0 0 -410z"/>
<path d="M20782 34088 c-19 -19 -17 -991 2 -1007 9 -8 110 -11 352 -9 l338 3
13 25 c10 19 13 133 13 491 -1 400 -3 469 -16 487 -15 22 -18 22 -353 22 -249
0 -340 -3 -349 -12z m606 -500 l2 -408 -260 0 -260 0 0 403 c0 222 3 407 7
411 4 3 119 5 257 4 l251 -3 3 -407z"/>
<path d="M15170 33938 c-70 -36 -103 -86 -108 -162 -5 -78 20 -133 79 -176
130 -94 309 -2 309 159 0 61 -13 97 -48 135 -61 65 -155 83 -232 44z m132 -99
c11 -6 26 -26 34 -45 38 -91 -78 -165 -146 -92 -29 32 -27 92 5 123 26 27 72
33 107 14z"/>
<path d="M27852 35850 c-93 -57 -190 -323 -277 -755 -84 -421 -118 -721 -119
-1060 -1 -270 7 -336 59 -464 60 -148 174 -283 288 -342 l37 -19 0 -488 c0
-425 2 -490 16 -510 17 -24 62 -30 82 -10 9 9 12 135 12 504 l0 493 60 32
c114 60 223 190 280 332 59 147 65 189 64 457 -1 395 -59 843 -166 1285 -79
327 -157 508 -238 550 -38 20 -59 19 -98 -5z m102 -172 c101 -213 207 -692
267 -1208 31 -266 34 -661 5 -760 -29 -102 -90 -220 -145 -282 -45 -50 -106
-98 -125 -98 -3 0 -6 130 -6 288 l0 289 115 166 c67 96 115 176 115 190 0 30
-18 47 -50 47 -31 0 -48 -18 -121 -124 l-54 -80 -5 363 c-4 307 -7 363 -20
371 -21 14 -43 12 -66 -4 -17 -13 -19 -31 -24 -196 l-5 -181 -60 61 c-60 61
-96 75 -123 48 -30 -30 -14 -62 88 -163 l100 -100 0 -482 c0 -353 -3 -483 -11
-483 -7 0 -42 31 -79 69 -74 75 -137 187 -166 296 -22 83 -30 364 -15 551 37
466 128 974 231 1284 37 111 87 210 106 210 7 0 29 -33 48 -72z"/>
<path d="M13000 35744 c-69 -63 -136 -225 -204 -499 -148 -594 -217 -1364
-147 -1640 47 -184 168 -360 299 -435 l61 -35 1 -492 c0 -433 2 -493 16 -507
22 -23 71 -20 84 3 6 13 10 189 10 503 l0 483 62 34 c92 50 186 151 241 258
60 116 85 210 98 363 28 337 -65 1086 -192 1545 -109 396 -211 526 -329 419z
m118 -149 c44 -88 79 -193 117 -345 109 -434 177 -943 177 -1325 0 -238 -12
-309 -78 -443 -37 -76 -128 -183 -183 -215 l-31 -18 0 291 0 292 115 165 c63
91 115 172 115 180 0 33 -21 53 -54 53 -31 0 -38 -7 -102 -100 l-69 -99 -2
352 c-3 345 -3 352 -24 370 -28 22 -44 22 -69 -3 -18 -18 -20 -33 -20 -197 l0
-177 -63 62 c-70 70 -105 80 -132 38 -23 -35 -9 -59 99 -166 l96 -95 0 -478 0
-478 -22 12 c-84 45 -195 213 -233 354 -23 84 -31 357 -16 552 46 602 195
1300 313 1466 24 33 27 31 66 -48z"/>
<path d="M13585 33379 c-210 -35 -371 -197 -406 -408 -38 -231 102 -464 326
-541 32 -11 69 -20 82 -20 l23 0 0 -304 c0 -264 2 -307 16 -320 21 -21 57 -20
77 2 15 16 17 54 17 320 l0 302 25 0 c37 0 134 39 193 77 110 73 192 203 212
339 40 258 -148 512 -410 554 -73 11 -85 11 -155 -1z m220 -130 c83 -31 183
-130 215 -214 31 -82 32 -197 1 -278 -41 -105 -165 -214 -263 -232 l-38 -7 0
43 c0 38 10 59 70 149 38 58 70 114 70 126 0 11 -9 29 -20 39 -28 25 -64 12
-92 -32 l-23 -38 -5 142 c-5 151 -10 166 -54 166 -44 0 -56 -19 -56 -85 l0
-59 -26 20 c-32 25 -51 26 -76 4 -32 -29 -22 -60 42 -127 l60 -63 0 -141 c0
-141 0 -142 -22 -142 -31 0 -122 44 -168 80 -52 41 -105 123 -125 195 -58 199
74 422 282 475 56 14 160 5 228 -21z"/>
<path d="M6093 31870 c-31 -13 -40 -55 -18 -80 18 -20 55 -20 3621 -20 l3604
0 15 24 c19 28 9 58 -25 76 -24 13 -7165 13 -7197 0z"/>
<path d="M13980 31873 c-38 -14 -51 -60 -24 -87 14 -15 333 -16 3363 -16 3312
0 3348 0 3366 20 23 26 13 68 -21 80 -27 10 -6656 13 -6684 3z"/>
<path d="M22840 31867 c-30 -15 -38 -58 -15 -81 15 -15 144 -16 1505 -16
l1490 0 15 24 c20 30 6 71 -27 80 -13 3 -680 6 -1483 6 -1149 0 -1465 -3
-1485 -13z"/>
<path d="M26729 31873 c-9 -2 -21 -16 -28 -30 -9 -21 -9 -30 4 -49 l15 -24
780 0 c705 0 780 2 795 16 23 23 15 66 -15 81 -20 10 -189 13 -780 12 -415 -1
-762 -3 -771 -6z"/>
<path d="M20205 30376 c-126 -58 -211 -224 -222 -431 -20 -359 199 -621 425
-509 116 57 197 211 217 410 9 83 5 85 -141 82 -111 -3 -119 -4 -119 -23 0
-19 8 -20 108 -23 l107 -3 0 -27 c-1 -54 -30 -164 -61 -227 -57 -115 -159
-187 -244 -171 -76 15 -159 94 -199 190 -50 119 -63 302 -31 426 32 125 107
234 182 266 103 44 220 -12 283 -137 22 -42 45 -58 61 -42 14 14 -36 107 -87
159 -83 85 -181 106 -279 60z"/>
<path d="M18377 30008 c-195 -594 -191 -578 -178 -591 20 -20 37 14 97 196
l59 177 167 0 167 0 57 -177 c32 -98 63 -184 70 -192 14 -16 34 -7 34 16 0 8
-54 178 -119 377 -66 198 -135 408 -154 466 -27 84 -38 106 -54 108 -18 3 -32
-34 -146 -380z m292 -165 c1 -10 -36 -13 -150 -13 -117 0 -150 3 -146 13 2 6
35 107 72 222 37 116 70 214 73 220 6 9 150 -413 151 -442z"/>
<path d="M11864 30365 c-3 -8 8 -56 24 -107 17 -51 85 -262 152 -468 67 -206
128 -381 135 -389 7 -7 18 -11 23 -7 9 5 63 167 279 830 44 135 46 167 11 154
-7 -3 -32 -63 -55 -134 -23 -71 -85 -264 -139 -429 -53 -165 -99 -303 -103
-307 -4 -4 -32 70 -63 165 -31 94 -96 292 -144 440 -84 256 -103 297 -120 252z"/>
<path d="M15002 29903 l3 -478 225 0 c218 0 225 1 225 20 0 19 -8 20 -207 23
l-208 2 0 455 c0 449 0 455 -20 455 -20 0 -20 -5 -18 -477z"/>
<path d="M16600 29906 c0 -423 2 -475 16 -480 9 -3 109 -6 223 -6 208 0 236 5
224 36 -4 11 -46 14 -214 14 l-209 0 0 455 c0 448 0 455 -20 455 -20 0 -20 -7
-20 -474z"/>
<path d="M21765 30368 c-3 -7 -4 -222 -3 -478 l3 -465 230 0 c211 0 230 1 233
18 3 16 -12 17 -207 17 l-211 0 0 225 0 224 138 3 c129 3 137 4 137 23 0 19
-8 20 -137 23 l-138 3 0 184 0 185 198 0 c108 0 203 4 211 9 8 5 11 16 8 25
-6 14 -34 16 -232 16 -171 0 -227 -3 -230 -12z"/>
<path d="M13647 30356 c-8 -21 13 -36 50 -36 l33 0 0 -425 0 -425 -40 0 c-34
0 -40 -3 -40 -20 0 -20 5 -21 102 -18 89 3 103 5 106 21 3 14 -4 17 -37 17
l-41 0 0 428 0 429 28 -4 c34 -4 57 10 49 31 -5 13 -24 16 -106 16 -75 0 -100
-3 -104 -14z"/>
<path d="M11635 23825 c-207 -46 -381 -204 -450 -410 -39 -118 -36 -289 8
-404 12 -32 107 -210 211 -395 l190 -336 179 2 179 3 195 345 c115 205 202
371 214 410 46 148 33 313 -37 458 -46 95 -168 222 -261 270 -126 66 -289 88
-428 57z m179 -96 c75 -65 150 -227 180 -389 9 -46 16 -135 16 -205 0 -159
-28 -274 -138 -560 -63 -165 -84 -211 -100 -213 -16 -3 -30 24 -92 175 -160
392 -194 535 -170 723 26 209 131 426 233 483 18 9 33 17 34 17 1 0 18 -14 37
-31z m-259 -70 c-84 -136 -135 -327 -135 -507 0 -150 51 -330 185 -651 30 -74
53 -136 50 -139 -7 -7 6 -29 -187 313 -96 171 -185 337 -197 370 -29 74 -38
207 -22 288 31 145 149 300 281 365 35 18 64 32 66 32 2 0 -17 -32 -41 -71z
m469 34 c107 -54 218 -189 257 -312 30 -95 29 -223 -2 -316 -25 -72 -375 -705
-390 -705 -5 0 3 30 17 68 134 351 154 413 178 552 36 212 0 447 -100 648 -57
114 -57 114 40 65z"/>
<path d="M21960 23225 c-193 -44 -360 -192 -429 -381 l-22 -60 -59 -12 c-32
-7 -94 -30 -138 -52 -288 -145 -405 -503 -259 -799 63 -130 209 -253 357 -304
64 -21 75 -22 728 -25 747 -3 764 -2 901 65 106 52 215 161 265 265 115 239
74 500 -107 682 -126 127 -252 180 -429 181 l-106 0 -12 40 c-37 126 -143 261
-257 327 -132 78 -293 105 -433 73z m325 -148 c142 -68 240 -197 265 -349 7
-40 13 -78 15 -84 2 -7 25 -5 72 7 177 46 345 3 470 -121 237 -235 169 -629
-134 -774 -91 -44 -121 -46 -801 -46 -597 0 -653 1 -713 18 -212 59 -352 243
-351 462 0 145 51 263 155 356 83 75 204 124 304 124 41 0 42 1 48 38 33 193
167 346 346 397 37 10 85 14 151 12 86 -4 104 -8 173 -40z"/>
<path d="M25462 22794 c-21 -15 -22 -21 -22 -188 0 -155 2 -175 18 -189 24
-22 35 -21 56 2 14 16 16 41 14 191 -3 161 -4 173 -23 186 -18 12 -24 11 -43
-2z"/>
<path d="M24854 22534 c-6 -24 6 -40 124 -157 128 -126 132 -129 154 -115 43
29 34 45 -93 174 -99 100 -128 124 -151 124 -22 0 -29 -6 -34 -26z"/>
<path d="M25937 22432 c-70 -70 -127 -134 -127 -143 0 -19 20 -39 40 -39 17 0
270 249 270 266 0 13 -33 44 -46 44 -5 0 -67 -57 -137 -128z"/>
<path d="M25383 22235 c-166 -45 -294 -178 -333 -344 -17 -71 -8 -182 20 -256
12 -33 56 -161 97 -285 42 -124 80 -231 85 -237 8 -10 70 -13 249 -13 237 0
239 0 253 23 7 12 40 110 71 217 32 107 72 229 89 270 28 68 31 85 31 185 0
107 -1 112 -37 188 -97 202 -317 308 -525 252z m173 -76 c76 -14 164 -61 210
-112 20 -22 50 -69 67 -106 27 -57 32 -77 31 -146 0 -64 -6 -94 -28 -148 -15
-38 -54 -155 -85 -260 l-57 -192 -185 -5 c-117 -3 -188 -2 -195 5 -6 5 -35 84
-64 175 -28 91 -68 206 -88 255 -31 77 -36 102 -36 170 0 69 5 90 31 147 55
116 142 188 263 214 71 16 67 16 136 3z"/>
<path d="M11628 22229 c-16 -9 -18 -28 -18 -157 0 -102 4 -152 12 -160 8 -8
56 -12 149 -12 112 0 141 3 153 16 13 12 16 41 16 154 0 113 -3 142 -16 154
-12 13 -40 16 -147 16 -73 0 -140 -5 -149 -11z m230 -161 l3 -78 -86 0 -85 0
0 80 0 81 83 -3 82 -3 3 -77z"/>
<path d="M14945 22026 c-123 -29 -199 -61 -295 -126 -149 -101 -265 -259 -322
-440 -20 -65 -23 -95 -23 -230 0 -135 3 -165 23 -230 84 -265 286 -469 547
-550 90 -28 277 -38 379 -20 165 29 321 114 442 242 88 93 143 184 186 308 30
90 32 102 33 245 0 130 -3 160 -23 225 -84 266 -275 465 -532 551 -83 28 -111
32 -225 35 -88 3 -150 -1 -190 -10z m310 -85 c297 -61 518 -294 573 -601 26
-150 -10 -342 -91 -480 -17 -30 -72 -96 -122 -145 -73 -74 -106 -99 -175 -133
-124 -60 -193 -76 -335 -77 -136 0 -218 20 -335 81 -285 149 -439 474 -374
792 20 100 88 240 156 320 178 209 437 298 703 243z"/>
<path d="M15090 21722 l0 -49 -55 -12 c-149 -34 -229 -158 -198 -311 4 -20 25
-52 52 -80 38 -39 59 -51 124 -71 l77 -24 0 -153 0 -154 -27 6 c-51 12 -89 52
-107 109 -4 14 -17 17 -66 17 -57 0 -60 -1 -60 -24 0 -88 101 -179 223 -201
37 -7 37 -8 37 -56 l0 -49 35 0 35 0 0 49 c0 48 0 49 38 56 135 25 224 126
223 255 0 111 -49 170 -174 211 l-82 27 -3 146 c-2 139 -2 146 17 146 27 0 81
-48 97 -87 14 -32 16 -33 75 -33 l61 0 -7 38 c-17 93 -98 165 -207 186 -38 7
-38 7 -38 56 l0 50 -35 0 -35 0 0 -48z m0 -292 c0 -157 1 -156 -70 -120 -54
27 -70 55 -70 118 0 65 20 98 75 123 67 31 65 34 65 -121z m157 -306 c70 -40
82 -128 26 -195 -25 -29 -77 -59 -103 -59 -6 0 -10 52 -10 146 l0 145 23 -6
c12 -4 41 -18 64 -31z"/>
<path d="M24612 21958 c-7 -7 -12 -19 -12 -28 0 -36 20 -40 201 -40 190 0 204
4 197 52 -3 23 -3 23 -188 26 -136 2 -189 -1 -198 -10z"/>
<path d="M25967 21953 c-13 -13 -7 -61 9 -67 9 -3 94 -6 190 -6 l174 0 12 25
c8 19 8 28 -2 40 -10 12 -43 15 -195 15 -100 0 -185 -3 -188 -7z"/>
<path d="M8328 21385 c-191 -47 -367 -212 -423 -399 l-11 -38 -115 -2 c-137
-2 -225 -29 -332 -102 -90 -62 -150 -131 -197 -229 -46 -96 -60 -159 -60 -267
0 -165 54 -292 175 -413 86 -87 162 -132 270 -160 90 -23 1398 -23 1489 1 159
41 302 157 375 305 123 250 77 518 -122 705 -84 80 -183 131 -308 158 -20 4
-29 15 -38 48 -56 186 -223 340 -426 393 -72 18 -200 18 -277 0z m289 -126
c158 -51 282 -193 316 -362 l13 -62 69 -6 c182 -17 342 -138 406 -308 29 -77
36 -199 15 -278 -44 -175 -176 -311 -345 -355 -59 -15 -134 -17 -702 -17 -391
-1 -657 3 -690 9 -87 16 -194 73 -252 133 -220 225 -180 578 84 748 105 67
264 88 391 53 32 -9 60 -15 63 -13 2 3 9 36 15 74 23 155 122 291 260 358 118
59 229 66 357 26z"/>
<path d="M25225 21046 c-32 -32 -40 -69 -25 -107 24 -57 32 -59 285 -59 253 0
261 2 285 59 16 39 6 76 -27 107 -26 24 -26 24 -260 24 l-234 0 -24 -24z m465
-71 c0 -13 -29 -15 -205 -15 -176 0 -205 2 -205 15 0 13 29 15 205 15 176 0
205 -2 205 -15z"/>
<path d="M25228 20832 c-42 -38 -46 -97 -9 -136 l24 -26 238 0 c237 0 238 0
266 24 39 34 39 95 0 134 l-27 27 -229 3 -230 3 -33 -29z m462 -72 c0 -6 -75
-10 -205 -10 -130 0 -205 4 -205 10 0 6 75 10 205 10 130 0 205 -4 205 -10z"/>
<path d="M25470 20554 c0 -14 4 -23 10 -19 6 3 10 15 10 26 0 10 -4 19 -10 19
-5 0 -10 -12 -10 -26z"/>
<path d="M25470 20395 c0 -30 5 -55 10 -55 6 0 10 25 10 55 0 30 -4 55 -10 55
-5 0 -10 -25 -10 -55z"/>
<path d="M25470 20195 c0 -30 5 -55 10 -55 6 0 10 25 10 55 0 30 -4 55 -10 55
-5 0 -10 -25 -10 -55z"/>
<path d="M15080 20185 c0 -30 5 -55 10 -55 6 0 10 25 10 55 0 30 -4 55 -10 55
-5 0 -10 -25 -10 -55z"/>
<path d="M25470 20006 c0 -31 5 -56 10 -56 6 0 10 22 10 49 0 28 -4 53 -10 56
-6 4 -10 -15 -10 -49z"/>
<path d="M15080 19985 c0 -30 5 -55 10 -55 6 0 10 25 10 55 0 30 -4 55 -10 55
-5 0 -10 -25 -10 -55z"/>
<path d="M25470 19805 c0 -30 5 -55 10 -55 6 0 10 25 10 55 0 30 -4 55 -10 55
-5 0 -10 -25 -10 -55z"/>
<path d="M15080 19795 c0 -30 5 -55 10 -55 6 0 10 25 10 55 0 30 -4 55 -10 55
-5 0 -10 -25 -10 -55z"/>
<path d="M25470 19610 c0 -27 5 -50 10 -50 6 0 10 23 10 50 0 28 -4 50 -10 50
-5 0 -10 -22 -10 -50z"/>
<path d="M15080 19595 c0 -30 5 -55 10 -55 6 0 10 25 10 55 0 30 -4 55 -10 55
-5 0 -10 -25 -10 -55z"/>
<path d="M25470 19415 c0 -30 5 -55 10 -55 6 0 10 25 10 55 0 30 -4 55 -10 55
-5 0 -10 -25 -10 -55z"/>
<path d="M15080 19400 c0 -27 5 -50 10 -50 6 0 10 23 10 50 0 28 -4 50 -10 50
-5 0 -10 -22 -10 -50z"/>
<path d="M11070 19255 c0 -25 4 -45 9 -45 5 0 11 20 13 45 2 31 -1 45 -9 45
-9 0 -13 -16 -13 -45z"/>
<path d="M11213 19293 c15 -2 39 -2 55 0 15 2 2 4 -28 4 -30 0 -43 -2 -27 -4z"/>
<path d="M11413 19293 c15 -2 39 -2 55 0 15 2 2 4 -28 4 -30 0 -43 -2 -27 -4z"/>
<path d="M11603 19293 c15 -2 39 -2 55 0 15 2 2 4 -28 4 -30 0 -43 -2 -27 -4z"/>
<path d="M11803 19293 c15 -2 39 -2 55 0 15 2 2 4 -28 4 -30 0 -43 -2 -27 -4z"/>
<path d="M11998 19293 c18 -2 45 -2 60 0 15 2 0 4 -33 4 -33 0 -45 -2 -27 -4z"/>
<path d="M12193 19293 c15 -2 39 -2 55 0 15 2 2 4 -28 4 -30 0 -43 -2 -27 -4z"/>
<path d="M12393 19293 c15 -2 39 -2 55 0 15 2 2 4 -28 4 -30 0 -43 -2 -27 -4z"/>
<path d="M12583 19293 c15 -2 39 -2 55 0 15 2 2 4 -28 4 -30 0 -43 -2 -27 -4z"/>
<path d="M12783 19293 c15 -2 39 -2 55 0 15 2 2 4 -28 4 -30 0 -43 -2 -27 -4z"/>
<path d="M12978 19293 c18 -2 45 -2 60 0 15 2 0 4 -33 4 -33 0 -45 -2 -27 -4z"/>
<path d="M13173 19293 c15 -2 39 -2 55 0 15 2 2 4 -28 4 -30 0 -43 -2 -27 -4z"/>
<path d="M13373 19293 c15 -2 39 -2 55 0 15 2 2 4 -28 4 -30 0 -43 -2 -27 -4z"/>
<path d="M13563 19293 c15 -2 39 -2 55 0 15 2 2 4 -28 4 -30 0 -43 -2 -27 -4z"/>
<path d="M13763 19293 c15 -2 39 -2 55 0 15 2 2 4 -28 4 -30 0 -43 -2 -27 -4z"/>
<path d="M13963 19293 c15 -2 39 -2 55 0 15 2 2 4 -28 4 -30 0 -43 -2 -27 -4z"/>
<path d="M14153 19293 c15 -2 39 -2 55 0 15 2 2 4 -28 4 -30 0 -43 -2 -27 -4z"/>
<path d="M14353 19293 c15 -2 39 -2 55 0 15 2 2 4 -28 4 -30 0 -43 -2 -27 -4z"/>
<path d="M14543 19293 c15 -2 39 -2 55 0 15 2 2 4 -28 4 -30 0 -43 -2 -27 -4z"/>
<path d="M14743 19293 c15 -2 39 -2 55 0 15 2 2 4 -28 4 -30 0 -43 -2 -27 -4z"/>
<path d="M14933 19293 c15 -2 39 -2 55 0 15 2 2 4 -28 4 -30 0 -43 -2 -27 -4z"/>
<path d="M15133 19293 c15 -2 39 -2 55 0 15 2 2 4 -28 4 -30 0 -43 -2 -27 -4z"/>
<path d="M15333 19293 c15 -2 39 -2 55 0 15 2 2 4 -28 4 -30 0 -43 -2 -27 -4z"/>
<path d="M15523 19293 c15 -2 39 -2 55 0 15 2 2 4 -28 4 -30 0 -43 -2 -27 -4z"/>
<path d="M15723 19293 c15 -2 39 -2 55 0 15 2 2 4 -28 4 -30 0 -43 -2 -27 -4z"/>
<path d="M15918 19293 c18 -2 45 -2 60 0 15 2 0 4 -33 4 -33 0 -45 -2 -27 -4z"/>
<path d="M16113 19293 c15 -2 39 -2 55 0 15 2 2 4 -28 4 -30 0 -43 -2 -27 -4z"/>
<path d="M16313 19293 c15 -2 39 -2 55 0 15 2 2 4 -28 4 -30 0 -43 -2 -27 -4z"/>
<path d="M16503 19293 c15 -2 39 -2 55 0 15 2 2 4 -28 4 -30 0 -43 -2 -27 -4z"/>
<path d="M16703 19293 c15 -2 39 -2 55 0 15 2 2 4 -28 4 -30 0 -43 -2 -27 -4z"/>
<path d="M16898 19293 c18 -2 45 -2 60 0 15 2 0 4 -33 4 -33 0 -45 -2 -27 -4z"/>
<path d="M17093 19293 c15 -2 39 -2 55 0 15 2 2 4 -28 4 -30 0 -43 -2 -27 -4z"/>
<path d="M17288 19293 c18 -2 45 -2 60 0 15 2 0 4 -33 4 -33 0 -45 -2 -27 -4z"/>
<path d="M17483 19293 c15 -2 39 -2 55 0 15 2 2 4 -28 4 -30 0 -43 -2 -27 -4z"/>
<path d="M17683 19293 c15 -2 39 -2 55 0 15 2 2 4 -28 4 -30 0 -43 -2 -27 -4z"/>
<path d="M17873 19293 c15 -2 39 -2 55 0 15 2 2 4 -28 4 -30 0 -43 -2 -27 -4z"/>
<path d="M18073 19293 c15 -2 39 -2 55 0 15 2 2 4 -28 4 -30 0 -43 -2 -27 -4z"/>
<path d="M18273 19293 c15 -2 39 -2 55 0 15 2 2 4 -28 4 -30 0 -43 -2 -27 -4z"/>
<path d="M18463 19293 c15 -2 39 -2 55 0 15 2 2 4 -28 4 -30 0 -43 -2 -27 -4z"/>
<path d="M18663 19293 c15 -2 39 -2 55 0 15 2 2 4 -28 4 -30 0 -43 -2 -27 -4z"/>
<path d="M18858 19293 c18 -2 45 -2 60 0 15 2 0 4 -33 4 -33 0 -45 -2 -27 -4z"/>
<path d="M19053 19293 c15 -2 39 -2 55 0 15 2 2 4 -28 4 -30 0 -43 -2 -27 -4z"/>
<path d="M19253 19293 c15 -2 39 -2 55 0 15 2 2 4 -28 4 -30 0 -43 -2 -27 -4z"/>
<path d="M19443 19293 c15 -2 39 -2 55 0 15 2 2 4 -28 4 -30 0 -43 -2 -27 -4z"/>
<path d="M19643 19293 c15 -2 39 -2 55 0 15 2 2 4 -28 4 -30 0 -43 -2 -27 -4z"/>
<path d="M19833 19293 c15 -2 39 -2 55 0 15 2 2 4 -28 4 -30 0 -43 -2 -27 -4z"/>
<path d="M20033 19293 c15 -2 39 -2 55 0 15 2 2 4 -28 4 -30 0 -43 -2 -27 -4z"/>
<path d="M20228 19293 c18 -2 45 -2 60 0 15 2 0 4 -33 4 -33 0 -45 -2 -27 -4z"/>
<path d="M20423 19293 c15 -2 39 -2 55 0 15 2 2 4 -28 4 -30 0 -43 -2 -27 -4z"/>
<path d="M20623 19293 c15 -2 39 -2 55 0 15 2 2 4 -28 4 -30 0 -43 -2 -27 -4z"/>
<path d="M20798 19255 c2 -25 8 -45 13 -45 5 0 9 20 9 45 0 29 -4 45 -13 45
-8 0 -11 -14 -9 -45z"/>
<path d="M25470 19215 c0 -30 5 -55 10 -55 6 0 10 25 10 55 0 30 -4 55 -10 55
-5 0 -10 -25 -10 -55z"/>
<path d="M15080 19205 c0 -30 5 -55 10 -55 6 0 10 25 10 55 0 30 -4 55 -10 55
-5 0 -10 -25 -10 -55z"/>
<path d="M11070 19066 c0 -25 5 -48 10 -51 6 -4 10 13 10 44 0 28 -4 51 -10
51 -5 0 -10 -20 -10 -44z"/>
<path d="M20800 19059 c0 -31 4 -48 10 -44 6 3 10 26 10 51 0 24 -4 44 -10 44
-5 0 -10 -23 -10 -51z"/>
<path d="M25470 19026 c0 -31 5 -56 10 -56 6 0 10 22 10 49 0 28 -4 53 -10 56
-6 4 -10 -15 -10 -49z"/>
<path d="M15080 19005 c0 -30 5 -55 10 -55 6 0 10 25 10 55 0 30 -4 55 -10 55
-5 0 -10 -25 -10 -55z"/>
<path d="M11077 18913 c-11 -10 -8 -93 3 -93 6 0 10 23 10 50 0 51 -1 55 -13
43z"/>
<path d="M20800 18871 c0 -28 5 -51 10 -51 6 0 10 20 10 44 0 25 -4 48 -10 51
-6 4 -10 -13 -10 -44z"/>
<path d="M25470 18825 c0 -30 5 -55 10 -55 6 0 10 25 10 55 0 30 -4 55 -10 55
-5 0 -10 -25 -10 -55z"/>
<path d="M15080 18815 c0 -30 5 -55 10 -55 6 0 10 25 10 55 0 30 -4 55 -10 55
-5 0 -10 -25 -10 -55z"/>
<path d="M19548 18858 c-8 -7 -345 -456 -749 -998 -526 -707 -734 -994 -737
-1016 -3 -24 1 -35 19 -48 21 -15 154 -16 1502 -16 l1478 0 25 25 c18 18 23
31 19 46 -8 24 -1458 1976 -1487 2002 -24 20 -48 22 -70 5z m689 -1023 c357
-478 659 -885 671 -902 l23 -33 -1351 0 -1351 0 63 85 c610 823 1285 1724
1290 1722 4 -1 299 -393 655 -872z"/>
<path d="M19507 17800 c-92 -24 -178 -96 -219 -185 -20 -45 -23 -69 -26 -227
-4 -168 -3 -177 17 -197 20 -20 30 -21 304 -21 262 0 285 1 300 18 14 16 17
44 17 184 0 190 -10 236 -69 314 -68 91 -213 141 -324 114z m156 -123 c39 -17
104 -87 114 -124 5 -16 8 -82 8 -148 l0 -120 -202 -3 -203 -2 0 130 c0 141 10
179 62 227 56 52 150 69 221 40z"/>
<path d="M11070 18670 c0 -27 5 -50 10 -50 6 0 10 23 10 50 0 28 -4 50 -10 50
-5 0 -10 -22 -10 -50z"/>
<path d="M20800 18670 c0 -27 5 -50 10 -50 6 0 10 23 10 50 0 28 -4 50 -10 50
-5 0 -10 -22 -10 -50z"/>
<path d="M25470 18630 c0 -27 5 -50 10 -50 6 0 10 23 10 50 0 28 -4 50 -10 50
-5 0 -10 -22 -10 -50z"/>
<path d="M15080 18615 c0 -30 5 -55 10 -55 6 0 10 25 10 55 0 30 -4 55 -10 55
-5 0 -10 -25 -10 -55z"/>
<path d="M20800 18475 c0 -35 4 -54 10 -50 6 3 10 26 10 50 0 24 -4 47 -10 50
-6 4 -10 -15 -10 -50z"/>
<path d="M25470 18435 c0 -30 5 -55 10 -55 6 0 10 25 10 55 0 30 -4 55 -10 55
-5 0 -10 -25 -10 -55z"/>
<path d="M15080 18420 c0 -27 5 -50 10 -50 6 0 10 23 10 50 0 28 -4 50 -10 50
-5 0 -10 -22 -10 -50z"/>
<path d="M20800 18280 c0 -27 5 -50 10 -50 6 0 10 23 10 50 0 28 -4 50 -10 50
-5 0 -10 -22 -10 -50z"/>
<path d="M9550 18270 c-20 -20 -20 -33 -20 -3683 l0 -3664 21 -19 c21 -19 64
-19 1893 -16 1276 3 1875 7 1883 14 10 8 13 751 13 3683 0 3545 -1 3672 -18
3688 -17 16 -162 17 -1885 17 -1854 0 -1867 0 -1887 -20z m3678 -255 l-3 -155
-1785 0 -1785 0 -3 155 -3 155 1791 0 1791 0 -3 -155z m-3 -330 l0 -50 -1787
-3 -1788 -2 0 55 0 55 1788 -2 1787 -3 0 -50z m5 -3425 l0 -3260 -990 0 -990
0 0 70 c0 62 -3 74 -25 95 -20 21 -34 25 -85 25 l-60 0 0 74 c0 79 -13 106
-51 106 -19 0 -19 15 -19 684 0 755 4 709 -63 721 -18 3 -222 5 -455 3 -406
-3 -424 -4 -438 -22 -12 -17 -14 -129 -14 -703 0 -668 0 -683 -19 -683 -38 0
-51 -27 -51 -106 l0 -74 -54 0 c-80 0 -95 -17 -98 -110 l-3 -75 -82 -3 -83 -3
0 3261 0 3260 1790 0 1790 0 0 -3260z m-2335 -2245 l0 -640 -370 0 -370 0 -3
643 -2 642 372 -2 373 -3 0 -640z m75 -795 l0 -30 -445 0 -445 0 0 30 0 30
445 0 445 0 0 -30z m160 -185 l0 -35 -600 0 -600 0 0 35 0 35 600 0 600 0 0
-35z"/>
<path d="M10233 17026 c-101 -33 -178 -100 -230 -198 l-28 -53 -3 -384 c-3
-349 -1 -385 14 -402 16 -18 37 -19 356 -19 328 0 339 1 359 21 20 20 20 28
17 387 -3 356 -4 369 -26 424 -32 80 -108 160 -189 200 -54 26 -79 32 -146 35
-51 2 -98 -2 -124 -11z m224 -132 c29 -14 66 -42 83 -64 57 -72 60 -92 60
-431 l0 -309 -261 0 -260 0 3 323 c3 310 4 324 25 363 74 138 211 184 350 118z"/>
<path d="M11335 17027 c-72 -24 -120 -54 -167 -105 -101 -108 -108 -144 -108
-572 0 -327 1 -341 20 -360 19 -19 33 -20 358 -20 319 0 340 1 356 19 15 17
17 52 14 398 l-3 378 -33 67 c-38 78 -101 139 -182 176 -66 31 -191 40 -255
19z m194 -119 c47 -15 120 -84 145 -138 20 -42 21 -65 24 -362 l3 -318 -261 0
-261 0 3 328 3 329 30 48 c68 110 186 152 314 113z"/>
<path d="M12415 17019 c-112 -36 -195 -119 -236 -235 -17 -49 -19 -86 -19
-418 l0 -365 22 -15 c19 -14 70 -16 355 -16 322 0 334 1 353 20 20 20 21 29
18 393 l-3 372 -27 57 c-37 80 -71 122 -131 161 -101 67 -218 83 -332 46z
m225 -121 c60 -25 97 -62 126 -123 23 -49 24 -55 24 -368 l0 -317 -255 2 -255
3 -1 316 c0 351 0 355 65 427 79 87 185 108 296 60z"/>
<path d="M10226 15579 c-113 -39 -188 -109 -232 -217 -23 -56 -24 -62 -24
-429 0 -325 2 -374 16 -387 13 -14 60 -16 355 -16 326 0 340 1 359 20 19 19
20 33 20 354 0 184 -5 357 -10 387 -43 224 -272 361 -484 288z m203 -114 c65
-22 108 -62 141 -128 l30 -60 0 -314 0 -313 -260 0 -260 0 0 298 c0 339 5 375
68 444 71 79 183 108 281 73z"/>
<path d="M11338 15586 c-109 -31 -208 -121 -250 -224 -22 -55 -23 -68 -26
-424 -3 -359 -3 -367 17 -387 20 -20 31 -21 360 -21 299 0 341 2 356 16 14 15
16 57 13 398 l-3 381 -29 59 c-61 124 -181 204 -318 211 -44 3 -92 -1 -120 -9z
m207 -130 c28 -12 65 -40 84 -61 65 -75 66 -77 69 -427 l3 -318 -260 0 -261 0
0 309 c0 329 3 356 51 421 27 35 85 78 125 90 57 17 137 11 189 -14z"/>
<path d="M12447 15590 c-107 -27 -204 -107 -254 -208 l-28 -57 -3 -379 c-3
-345 -2 -380 14 -397 16 -18 36 -19 359 -19 323 0 343 1 359 19 16 17 17 51
14 392 l-3 374 -27 57 c-61 130 -183 216 -319 223 -41 2 -91 0 -112 -5z m188
-129 c60 -27 101 -66 129 -123 l26 -52 0 -318 0 -318 -257 0 -258 0 2 320 c3
317 3 321 27 368 30 58 68 95 126 121 58 26 150 27 205 2z"/>
<path d="M10255 14146 c-113 -29 -201 -100 -252 -204 l-28 -57 -3 -385 c-2
-355 -1 -386 15 -397 13 -10 99 -13 360 -13 l343 0 15 24 c14 22 16 69 13 388
l-3 364 -37 76 c-23 45 -55 91 -79 113 -91 82 -234 120 -344 91z m200 -134
c47 -24 95 -73 121 -122 17 -32 19 -66 22 -362 l3 -328 -260 0 -261 0 0 303
c0 342 5 374 66 445 35 41 72 66 124 83 41 14 142 3 185 -19z"/>
<path d="M11364 14150 c-139 -29 -253 -137 -289 -275 -22 -88 -22 -730 1 -763
l15 -22 344 0 c299 0 346 2 359 16 14 13 16 62 16 380 0 336 -2 369 -20 420
-60 172 -251 281 -426 244z m158 -126 c61 -20 118 -70 148 -130 l25 -49 0
-320 0 -320 -257 -3 -258 -2 0 317 c0 313 1 319 24 368 59 126 189 183 318
139z"/>
<path d="M12440 14145 c-110 -31 -199 -107 -248 -213 l-27 -57 -3 -376 c-3
-336 -1 -378 13 -393 15 -14 57 -16 359 -16 323 0 344 1 360 19 15 17 17 52
14 387 -3 363 -3 370 -27 429 -33 82 -125 174 -203 203 -78 29 -170 36 -238
17z m204 -130 c51 -25 104 -78 127 -129 17 -37 19 -71 19 -364 l0 -322 -256 2
-256 3 1 320 1 320 26 52 c29 59 79 106 139 128 52 19 149 14 199 -10z"/>
<path d="M25470 18235 c0 -30 5 -55 10 -55 6 0 10 25 10 55 0 30 -4 55 -10 55
-5 0 -10 -25 -10 -55z"/>
<path d="M15080 18225 c0 -30 5 -55 10 -55 6 0 10 25 10 55 0 30 -4 55 -10 55
-5 0 -10 -25 -10 -55z"/>
<path d="M20800 18100 c0 -16 5 -30 10 -30 6 0 10 14 10 30 0 17 -4 30 -10 30
-5 0 -10 -13 -10 -30z"/>
<path d="M25470 18045 c0 -30 5 -55 10 -55 6 0 10 25 10 55 0 30 -4 55 -10 55
-5 0 -10 -25 -10 -55z"/>
<path d="M15080 18025 c0 -30 5 -55 10 -55 6 0 10 25 10 55 0 30 -4 55 -10 55
-5 0 -10 -25 -10 -55z"/>
<path d="M25470 17845 c0 -30 5 -55 10 -55 6 0 10 25 10 55 0 30 -4 55 -10 55
-5 0 -10 -25 -10 -55z"/>
<path d="M15080 17835 c0 -30 5 -55 10 -55 6 0 10 25 10 55 0 30 -4 55 -10 55
-5 0 -10 -25 -10 -55z"/>
<path d="M7664 17782 c-16 -10 -24 -26 -355 -735 -164 -351 -299 -648 -299
-658 0 -10 9 -28 20 -39 20 -20 33 -20 665 -20 632 0 645 0 665 20 11 11 20
28 20 38 0 15 -557 1219 -625 1352 -20 40 -32 50 -60 50 -11 0 -25 -4 -31 -8z
m341 -847 l224 -480 -264 -3 c-145 -1 -385 -1 -534 0 l-269 3 62 135 c117 252
423 905 447 953 l24 48 43 -88 c23 -48 143 -304 267 -568z"/>
<path d="M7605 16941 c-51 -23 -111 -89 -124 -138 -17 -58 -14 -245 3 -269 13
-18 28 -19 211 -19 183 0 198 1 211 19 20 28 19 219 -1 277 -43 120 -186 182
-300 130z m129 -105 c52 -22 66 -50 66 -133 l0 -73 -110 0 -110 0 1 53 c0 73
18 117 58 144 40 27 50 28 95 9z"/>
<path d="M15080 17635 c0 -30 5 -55 10 -55 6 0 10 25 10 55 0 30 -4 55 -10 55
-5 0 -10 -25 -10 -55z"/>
<path d="M24487 17502 c-15 -17 -17 -68 -17 -534 0 -467 2 -517 17 -529 12
-11 67 -15 230 -17 l213 -3 0 -109 0 -110 -737 -2 -738 -3 -57 -28 c-73 -36
-150 -119 -177 -192 -28 -75 -28 -185 0 -259 22 -60 94 -147 143 -174 17 -9
51 -24 76 -33 l45 -16 3 -810 2 -811 -51 -16 c-96 -32 -165 -90 -211 -179 -30
-58 -37 -186 -14 -255 34 -100 125 -186 229 -213 l47 -13 -2 -830 -3 -830 -30
-7 c-95 -20 -182 -91 -226 -184 -38 -78 -40 -184 -7 -272 28 -76 105 -152 185
-185 l58 -23 2610 0 2610 0 66 31 c121 58 190 156 197 285 10 164 -86 299
-244 345 l-54 15 2 826 3 826 40 12 c155 46 256 176 255 328 -1 151 -97 277
-247 324 l-53 17 0 808 c0 638 3 809 13 812 122 35 197 93 247 191 32 63 35
75 35 159 0 77 -4 99 -26 147 -37 79 -90 133 -167 171 l-67 33 -732 3 -733 2
0 110 0 110 205 0 c205 0 206 0 230 25 l25 24 0 506 c0 492 -1 506 -20 525
-20 20 -33 20 -1588 20 -1507 0 -1570 -1 -1585 -18z m3073 -532 l0 -430 -1490
0 -1490 0 0 430 0 430 1490 0 1490 0 0 -430z m-562 -657 l-3 -108 -922 -3
-923 -2 0 110 0 110 925 0 926 0 -3 -107z m1661 -239 c172 -51 231 -264 108
-392 -42 -44 -76 -61 -144 -72 -30 -5 -61 -15 -69 -21 -20 -16 -21 -1801 -1
-1816 6 -6 36 -13 66 -17 129 -17 215 -108 214 -227 -1 -121 -100 -219 -219
-219 -16 0 -40 -7 -52 -16 l-22 -15 0 -913 c0 -719 3 -916 13 -924 6 -5 35
-13 62 -17 65 -9 113 -30 148 -63 115 -108 85 -292 -57 -358 l-51 -24 -2574 0
c-1999 0 -2583 3 -2615 12 -57 17 -131 93 -146 149 -25 92 16 198 94 244 23
14 69 30 102 36 104 21 94 -83 94 946 0 890 0 903 -20 923 -13 13 -33 20 -59
20 -56 0 -120 31 -163 78 -122 135 -34 342 156 367 95 13 86 -80 86 925 0 703
-3 890 -13 904 -8 11 -34 20 -68 25 -109 14 -186 84 -210 189 -28 121 47 245
169 278 37 10 577 13 2583 13 2267 1 2541 -1 2588 -15z"/>
<path d="M24730 16954 l0 -255 33 3 32 3 0 173 c0 94 2 172 5 172 3 0 41 -79
85 -176 104 -230 100 -230 202 -4 41 91 79 169 84 175 5 5 9 -58 9 -168 l0
-177 35 0 35 0 0 255 0 255 -38 0 -37 0 -90 -196 c-50 -108 -93 -197 -98 -198
-4 0 -48 88 -98 197 l-92 197 -33 0 -34 0 0 -256z"/>
<path d="M25457 17047 c-32 -89 -74 -204 -93 -255 l-34 -93 38 3 c35 3 38 6
56 56 l19 52 112 0 112 0 19 -52 c18 -50 21 -53 57 -56 l37 -3 -35 98 c-20 54
-62 169 -93 256 l-56 157 -41 0 -40 0 -58 -163z m142 -46 c23 -63 41 -118 41
-123 0 -4 -38 -8 -85 -8 -47 0 -85 4 -85 9 0 14 82 242 86 239 1 -2 21 -55 43
-117z"/>
<path d="M25860 16955 l0 -255 35 0 35 0 0 105 0 105 34 0 c32 0 37 -6 98
-102 64 -102 65 -103 108 -106 52 -4 52 -4 -30 117 -33 50 -60 92 -60 95 0 2
12 7 28 11 90 22 128 146 69 229 -32 45 -72 56 -202 56 l-115 0 0 -255z m225
190 c61 -25 72 -113 18 -155 -21 -16 -40 -20 -99 -20 l-74 0 0 95 0 95 60 0
c33 0 76 -7 95 -15z"/>
<path d="M26320 16954 l0 -255 33 3 32 3 0 108 c0 59 3 106 6 105 4 -2 51 -51
104 -110 96 -107 98 -108 142 -108 l45 0 -60 68 c-33 37 -86 92 -116 122 -59
58 -65 70 -41 90 8 7 61 62 116 121 l101 109 -48 -1 -49 0 -95 -110 c-52 -60
-97 -109 -100 -109 -3 0 -4 49 -2 110 l3 110 -35 0 -36 0 0 -256z"/>
<path d="M26760 16955 l0 -255 135 0 135 0 0 30 0 30 -100 0 -100 0 0 85 0 84
88 3 c85 3 87 3 87 28 0 25 -2 25 -87 28 l-88 3 0 84 0 85 100 0 100 0 0 25 0
25 -135 0 -135 0 0 -255z"/>
<path d="M27100 17185 c0 -24 2 -25 70 -25 l70 0 0 -230 0 -230 35 0 35 0 0
230 0 230 65 0 c63 0 65 1 65 25 l0 25 -170 0 -170 0 0 -25z"/>
<path d="M23896 15474 c-14 -14 -16 -101 -16 -808 0 -755 1 -794 18 -809 17
-15 71 -17 570 -17 l551 0 15 22 c14 20 16 113 16 803 0 690 -2 783 -16 803
l-15 22 -554 0 c-490 0 -555 -2 -569 -16z m1034 -804 l0 -710 -465 0 -465 0 0
710 0 710 465 0 465 0 0 -710z"/>
<path d="M25506 15474 c-14 -14 -16 -101 -16 -808 0 -755 1 -794 18 -809 17
-15 71 -17 570 -17 l551 0 15 22 c14 20 16 113 16 803 0 690 -2 783 -16 803
l-15 22 -554 0 c-490 0 -555 -2 -569 -16z m1034 -804 l0 -710 -465 0 -465 0 0
710 0 710 465 0 465 0 0 -710z"/>
<path d="M27110 15471 c-7 -13 -10 -284 -10 -809 0 -752 1 -790 18 -805 17
-15 71 -17 565 -17 534 0 547 0 567 20 20 20 20 33 20 803 0 692 -2 785 -16
805 l-15 22 -559 0 c-543 0 -560 -1 -570 -19z m1040 -801 l0 -710 -465 -2
-465 -3 0 713 0 712 465 0 465 0 0 -710z"/>
<path d="M23896 13188 c-14 -20 -16 -113 -16 -806 0 -521 3 -790 10 -803 10
-18 27 -19 569 -19 528 0 559 1 574 18 16 17 17 87 17 805 0 774 0 787 -20
807 -20 20 -33 20 -569 20 l-550 0 -15 -22z m1034 -808 l0 -710 -465 0 -465 0
0 710 0 710 465 0 465 0 0 -710z"/>
<path d="M25507 13192 c-16 -17 -17 -87 -17 -806 0 -524 3 -794 10 -807 10
-18 27 -19 570 -19 l559 0 15 22 c14 20 16 113 16 805 0 770 0 783 -20 803
-20 20 -33 20 -568 20 -519 0 -550 -1 -565 -18z m1033 -812 l0 -710 -465 0
-465 0 0 710 0 710 465 0 465 0 0 -710z"/>
<path d="M27117 13192 c-16 -17 -17 -87 -17 -806 0 -524 3 -794 10 -807 10
-18 27 -19 570 -19 l560 0 15 24 c14 20 15 115 13 810 -3 766 -4 788 -22 802
-17 12 -110 14 -566 14 -517 0 -548 -1 -563 -18z m1033 -812 l0 -710 -465 0
-465 0 0 710 0 710 465 0 465 0 0 -710z"/>
<path d="M15080 17446 c0 -31 5 -56 10 -56 6 0 10 22 10 49 0 28 -4 53 -10 56
-6 4 -10 -15 -10 -49z"/>
<path d="M15080 17245 c0 -30 5 -55 10 -55 6 0 10 25 10 55 0 30 -4 55 -10 55
-5 0 -10 -25 -10 -55z"/>
<path d="M15080 17050 c0 -27 5 -50 10 -50 6 0 10 23 10 50 0 28 -4 50 -10 50
-5 0 -10 -22 -10 -50z"/>
<path d="M15080 16855 c0 -30 5 -55 10 -55 6 0 10 25 10 55 0 30 -4 55 -10 55
-5 0 -10 -25 -10 -55z"/>
<path d="M18082 16704 l-22 -15 0 -2903 c0 -2800 1 -2903 18 -2919 17 -16 136
-17 1503 -17 1267 0 1488 2 1505 14 19 14 19 57 22 2909 l2 2894 -21 27 -20
26 -1483 0 c-1325 0 -1484 -2 -1504 -16z m2908 -2919 l0 -2815 -485 0 -484 0
-3 473 -3 472 -34 70 c-165 337 -631 335 -799 -4 l-37 -75 -3 -468 -3 -468
-484 0 -485 0 0 2815 0 2815 1410 0 1410 0 0 -2815z m-1268 -1693 c63 -31 126
-95 157 -162 l26 -55 3 -452 3 -453 -331 0 -331 0 3 448 c4 508 3 501 85 592
74 83 141 110 258 107 60 -2 92 -8 127 -25z"/>
<path d="M18650 16090 c-19 -19 -20 -33 -20 -418 0 -344 2 -401 16 -420 15
-22 15 -22 350 -22 212 0 342 4 355 10 18 10 19 26 19 424 0 387 -1 414 -18
429 -17 15 -56 17 -350 17 -319 0 -333 -1 -352 -20z m610 -425 l0 -325 -255 0
-255 0 0 325 0 325 255 0 255 0 0 -325z"/>
<path d="M19812 16094 l-22 -15 0 -408 c0 -382 1 -409 18 -424 17 -15 56 -17
354 -17 312 0 336 1 351 18 15 17 17 61 17 425 l0 406 -22 15 c-19 14 -70 16
-348 16 -278 0 -329 -2 -348 -16z m606 -426 l-3 -323 -255 0 -255 0 -3 323 -2
322 260 0 260 0 -2 -322z"/>
<path d="M18646 14838 c-14 -19 -16 -76 -16 -413 0 -337 2 -394 16 -413 l15
-22 343 0 c253 0 345 3 354 12 17 17 17 829 0 846 -9 9 -101 12 -354 12 l-343
0 -15 -22z m614 -413 l0 -325 -255 0 -255 0 0 325 0 325 255 0 255 0 0 -325z"/>
<path d="M19802 14848 c-16 -16 -17 -809 -2 -839 10 -18 25 -19 355 -19 299 0
346 2 359 16 14 13 16 65 16 415 0 257 -4 407 -10 420 -10 18 -25 19 -358 19
-257 0 -351 -3 -360 -12z m618 -423 l0 -325 -260 0 -260 0 0 325 0 325 260 0
260 0 0 -325z"/>
<path d="M18646 13598 c-14 -19 -16 -76 -16 -416 l0 -393 25 -24 24 -25 323 0
c277 0 327 2 346 16 l22 15 0 413 c0 307 -3 415 -12 424 -9 9 -101 12 -354 12
l-343 0 -15 -22z m614 -413 l0 -325 -255 0 -255 0 0 325 0 325 255 0 255 0 0
-325z"/>
<path d="M19806 13604 c-14 -13 -16 -66 -16 -424 l0 -410 24 -15 c20 -14 68
-15 356 -13 315 3 332 4 346 22 12 16 14 91 14 422 0 353 -2 405 -16 418 -13
14 -60 16 -354 16 -294 0 -341 -2 -354 -16z m612 -421 l2 -323 -260 0 -260 0
0 325 0 325 258 -2 257 -3 3 -322z"/>
<path d="M15080 16655 c0 -30 5 -55 10 -55 6 0 10 25 10 55 0 30 -4 55 -10 55
-5 0 -10 -25 -10 -55z"/>
<path d="M15080 16460 c0 -27 5 -50 10 -50 6 0 10 23 10 50 0 28 -4 50 -10 50
-5 0 -10 -22 -10 -50z"/>
<path d="M15080 16265 c0 -30 5 -55 10 -55 6 0 10 25 10 55 0 30 -4 55 -10 55
-5 0 -10 -25 -10 -55z"/>
<path d="M7058 16259 c-17 -9 -18 -70 -18 -1039 l0 -1028 -155 -208 -155 -208
0 -1432 c0 -1319 1 -1433 17 -1445 13 -12 232 -14 1315 -17 l1299 -2 24 24 25
25 0 1420 0 1419 -103 138 c-57 77 -295 397 -530 712 l-427 574 0 523 c0 463
-2 525 -16 539 -14 14 -85 16 -637 16 -404 -1 -628 -4 -639 -11z m1182 -509
c0 -220 -2 -400 -4 -400 -2 0 -33 38 -67 85 -64 87 -96 108 -128 88 -9 -5
-209 -269 -446 -586 -236 -317 -433 -579 -437 -583 -5 -4 -8 398 -8 894 l0
902 545 0 545 0 0 -400z m413 -1158 l578 -777 -580 -3 c-319 -1 -843 -1 -1164
0 l-585 3 177 236 c173 233 409 549 790 1062 105 141 195 257 199 257 4 0 267
-350 585 -778z m637 -2247 l0 -1345 -340 0 -340 0 0 786 c0 522 -3 792 -10
805 -10 18 -27 19 -527 19 -467 0 -518 -2 -535 -17 -17 -15 -18 -53 -18 -805
l0 -788 -340 0 -340 0 0 1345 0 1345 1225 0 1225 0 0 -1345z m-800 -585 l0
-735 -425 -3 -425 -2 0 740 0 740 425 -2 426 -3 -1 -735z"/>
<path d="M7967 14616 c-78 -28 -154 -111 -177 -196 -5 -19 -10 -99 -10 -177 0
-198 -24 -183 288 -183 228 0 250 2 265 18 14 16 17 44 17 178 0 146 -2 163
-24 209 -29 61 -86 117 -146 144 -53 24 -155 27 -213 7z m200 -132 c57 -43 74
-96 71 -211 l-3 -98 -167 -3 -168 -2 0 117 c0 109 2 121 24 154 55 80 168 100
243 43z"/>
<path d="M15080 16064 c0 -34 4 -53 10 -49 6 3 10 28 10 56 0 27 -4 49 -10 49
-5 0 -10 -25 -10 -56z"/>
<path d="M15080 15875 c0 -30 5 -55 10 -55 6 0 10 25 10 55 0 30 -4 55 -10 55
-5 0 -10 -25 -10 -55z"/>
<path d="M5905 15811 c-61 -25 -139 -150 -204 -329 -171 -463 -341 -1527 -341
-2130 0 -324 43 -515 161 -715 54 -92 201 -239 291 -291 l68 -38 2 -660 c3
-640 4 -660 22 -674 27 -19 52 -18 76 6 20 20 20 33 20 674 l0 655 21 6 c49
16 145 81 210 143 142 134 247 337 285 552 69 397 -31 1378 -217 2124 -128
511 -257 732 -394 677z m74 -140 c156 -219 334 -1003 416 -1831 23 -225 31
-611 16 -740 -26 -218 -114 -412 -248 -547 -51 -51 -136 -113 -155 -113 -4 0
-8 181 -8 403 l1 402 149 215 c161 230 172 255 125 286 -20 13 -31 14 -48 7
-13 -6 -68 -75 -123 -154 l-99 -144 -5 493 c-5 474 -6 494 -24 508 -28 20 -43
18 -71 -11 l-25 -24 0 -248 0 -248 -93 93 c-76 75 -98 92 -123 92 -38 0 -54
-16 -54 -55 0 -26 20 -51 135 -165 l135 -135 0 -652 c0 -402 -4 -653 -9 -653
-6 0 -38 21 -73 48 -128 97 -234 268 -284 457 -23 88 -27 125 -31 314 -18 760
219 2084 427 2386 17 25 35 45 40 45 5 0 18 -13 29 -29z"/>
<path d="M15080 15675 c0 -30 5 -55 10 -55 6 0 10 25 10 55 0 30 -4 55 -10 55
-5 0 -10 -25 -10 -55z"/>
<path d="M15087 15533 c-11 -10 -8 -103 3 -103 6 0 10 25 10 55 0 56 -1 60
-13 48z"/>
<path d="M13486 15084 c-14 -14 -16 -218 -16 -2094 l0 -2079 22 -15 c20 -14
246 -16 2208 -16 1962 0 2188 2 2208 16 l22 15 0 2078 c0 2000 -1 2079 -18
2094 -17 16 -185 17 -2215 17 -1983 0 -2197 -2 -2211 -16z m4334 -2094 l0
-1990 -205 0 -205 0 0 979 0 980 -22 15 c-19 14 -74 16 -390 16 -355 0 -369
-1 -388 -20 -20 -20 -20 -33 -20 -995 l0 -975 -240 0 -240 0 0 975 c0 962 0
975 -20 995 -19 19 -33 20 -388 20 -316 0 -371 -2 -390 -16 l-22 -15 0 -980 0
-979 -245 0 -245 0 0 977 c0 895 -1 978 -17 995 -15 17 -40 18 -382 18 -316 0
-370 -2 -389 -16 l-22 -15 0 -980 0 -979 -205 0 -205 0 0 1990 0 1990 2120 0
2120 0 0 -1990z m-3130 -1055 l0 -935 -295 0 -295 0 0 935 0 935 295 0 295 0
0 -935z m1300 0 l0 -935 -290 0 -290 0 0 935 0 935 290 0 290 0 0 -935z m1302
3 l-2 -933 -290 -3 -290 -2 0 935 0 935 293 0 292 0 -3 -932z"/>
<path d="M14500 14024 l0 -336 163 4 c143 3 167 6 204 26 105 55 130 175 56
263 -15 17 -40 37 -56 44 l-30 12 40 23 c50 27 73 66 73 119 0 82 -50 149
-128 171 -20 5 -101 10 -179 10 l-143 0 0 -336z m294 252 c43 -18 66 -51 66
-96 0 -78 -54 -110 -185 -110 l-85 0 0 110 0 110 85 0 c51 0 99 -6 119 -14z
m9 -290 c52 -22 72 -51 72 -107 0 -87 -55 -118 -207 -119 l-78 0 0 120 0 120
90 0 c54 0 104 -6 123 -14z"/>
<path d="M15290 14338 c-19 -45 -230 -631 -230 -639 0 -5 20 -9 44 -9 l44 0
25 73 24 72 148 0 148 0 26 -70 27 -70 42 -3 c29 -2 42 1 42 10 0 7 -53 158
-117 336 l-117 322 -48 0 c-41 0 -50 -4 -58 -22z m120 -268 c28 -78 50 -146
50 -151 0 -11 -230 -12 -230 -1 0 4 25 78 57 165 39 109 59 154 65 144 4 -9
31 -79 58 -157z"/>
<path d="M15750 14025 l0 -335 45 0 45 0 0 262 0 263 175 -263 176 -263 42 3
42 3 3 333 2 332 -45 0 -45 0 0 -255 c0 -140 -3 -255 -7 -255 -5 0 -84 115
-176 255 l-168 255 -45 0 -44 0 0 -335z"/>
<path d="M16420 14025 l0 -335 45 0 44 0 3 146 3 147 133 -147 133 -146 55 0
c30 0 54 3 54 6 0 4 -68 78 -151 165 l-152 159 19 23 c11 12 73 80 139 152
167 180 158 165 92 165 l-56 0 -133 -149 -133 -149 -3 149 -3 149 -44 0 -45 0
0 -335z"/>
<path d="M22535 14810 c-35 -13 -90 -83 -125 -156 -102 -216 -214 -698 -274
-1184 -39 -314 -44 -395 -42 -665 2 -221 5 -259 24 -330 58 -211 173 -374 334
-471 l58 -35 0 -529 0 -529 22 -15 c29 -21 51 -20 71 2 15 17 17 72 19 542 l3
523 69 41 c171 105 290 282 342 511 25 107 25 506 0 740 -40 381 -94 702 -170
1003 -107 426 -212 601 -331 552z m65 -150 c89 -125 206 -583 280 -1096 46
-321 58 -490 55 -759 -2 -214 -5 -248 -24 -315 -45 -150 -138 -293 -236 -360
-24 -17 -46 -30 -49 -30 -3 0 -6 139 -6 309 l0 309 37 53 c20 30 76 111 125
181 48 70 88 137 88 148 0 22 -33 60 -53 60 -26 0 -58 -33 -118 -120 -34 -50
-65 -93 -69 -95 -5 -3 -9 164 -9 372 -1 335 -3 379 -18 395 -20 22 -42 23 -71
2 -21 -15 -22 -20 -22 -212 l0 -196 -69 68 c-73 72 -106 85 -138 53 -36 -35
-20 -64 96 -181 l111 -111 0 -513 c0 -371 -3 -512 -11 -512 -6 0 -46 35 -88
78 -176 177 -226 381 -202 811 31 535 150 1204 273 1526 34 87 75 165 88 165
5 0 18 -13 30 -30z"/>
<path d="M21650 12303 c-220 -37 -407 -210 -465 -429 -20 -76 -20 -212 0 -289
55 -210 233 -380 443 -424 l62 -14 0 -362 c0 -338 1 -363 18 -378 21 -19 45
-21 73 -7 18 10 19 25 19 378 l0 368 73 17 c117 27 192 70 282 161 111 112
159 215 171 366 21 275 -176 541 -449 605 -58 14 -170 18 -227 8z m284 -151
c91 -43 145 -88 195 -163 92 -138 107 -309 39 -451 -61 -126 -150 -206 -277
-249 -83 -28 -95 -23 -89 44 4 46 15 68 91 181 48 71 87 137 87 147 0 17 -44
59 -62 59 -12 0 -65 -54 -93 -94 l-21 -29 -2 179 c-3 194 -7 207 -58 207 -41
0 -54 -27 -54 -112 l0 -75 -33 32 c-18 18 -43 32 -54 32 -21 0 -63 -42 -63
-62 0 -6 34 -45 75 -87 l75 -77 0 -183 0 -183 -37 6 c-59 10 -174 70 -220 115
-191 184 -200 468 -22 656 61 64 99 90 183 122 52 20 76 23 166 20 95 -2 112
-6 174 -35z"/>
<path d="M5702 10523 c-25 -10 -34 -53 -17 -79 l15 -24 1640 0 1640 0 12 26
c10 21 9 31 -3 52 l-15 27 -1629 2 c-897 1 -1636 -1 -1643 -4z"/>
<path d="M9297 10512 c-20 -22 -22 -63 -5 -80 18 -18 12128 -18 12146 0 17 17
15 64 -4 82 -14 15 -579 16 -6068 16 -5851 0 -6053 -1 -6069 -18z"/>
<path d="M22007 10512 c-19 -21 -21 -45 -7 -73 11 -19 45 -19 2163 -19 1661 0
2156 3 2165 12 17 17 15 64 -4 82 -14 14 -224 16 -2158 16 -2063 0 -2144 -1
-2159 -18z"/>
<path d="M26554 10504 c-13 -19 -15 -32 -8 -52 l9 -27 1214 -3 c889 -1 1217 1
1227 9 20 16 17 63 -4 82 -17 16 -116 17 -1220 17 l-1202 0 -16 -26z"/>
<path d="M9280 8481 c-108 -33 -180 -125 -180 -230 0 -64 11 -91 56 -141 41
-45 97 -77 184 -105 121 -39 212 -102 244 -169 9 -19 16 -58 16 -88 0 -133
-105 -219 -248 -205 -106 11 -182 81 -202 187 -11 59 -22 76 -40 65 -18 -11
-6 -103 18 -151 47 -92 136 -143 246 -144 99 0 143 16 202 75 59 58 81 122 71
207 -15 124 -97 195 -321 279 -59 21 -102 45 -127 68 -123 118 -28 311 154
311 67 0 102 -12 140 -48 38 -36 58 -75 66 -131 5 -37 10 -46 26 -46 50 0 17
134 -50 200 -62 63 -172 91 -255 66z"/>
<path d="M12942 8473 c-16 -29 -301 -906 -304 -933 -2 -19 2 -25 16 -25 17 0
29 29 80 183 l60 182 170 -2 170 -3 58 -182 c50 -155 62 -183 78 -183 13 0 20
7 20 19 0 16 -271 855 -302 934 -12 31 -33 35 -46 10z m168 -535 c0 -5 -68 -8
-151 -8 -117 0 -150 3 -147 13 3 6 38 111 78 232 l73 220 73 -225 c41 -124 74
-228 74 -232z"/>
<path d="M20422 8464 c-133 -66 -216 -248 -215 -469 0 -172 49 -318 137 -408
56 -58 96 -78 165 -84 181 -17 324 176 338 458 18 355 -201 615 -425 503z
m206 -50 c111 -65 188 -265 176 -458 -14 -229 -135 -410 -274 -409 -121 0
-226 123 -266 314 -31 145 -2 344 66 455 29 45 106 112 144 124 44 13 104 3
154 -26z"/>
<path d="M14437 8474 c-4 -4 -7 -220 -7 -481 l0 -473 230 0 c219 0 230 1 230
19 0 10 -7 22 -16 25 -9 3 -103 6 -210 6 l-194 0 -2 452 c-3 433 -6 477 -31
452z"/>
<path d="M16035 8468 c-3 -7 -4 -222 -3 -478 l3 -465 224 -3 c229 -2 257 2
229 35 -8 10 -61 13 -214 13 l-204 0 -2 452 c-2 350 -6 452 -15 455 -7 3 -15
-1 -18 -9z"/>
<path d="M21984 8466 c-6 -15 31 -153 189 -711 63 -222 77 -260 94 -263 17 -2
23 8 40 70 12 40 68 237 124 437 l103 365 17 -55 c10 -29 61 -209 114 -399
115 -415 115 -415 140 -415 16 0 36 63 152 470 73 259 133 478 133 487 0 21
-19 33 -31 21 -5 -5 -65 -205 -133 -444 l-123 -434 -15 50 c-8 28 -64 225
-124 438 -99 353 -111 388 -129 385 -21 -3 -32 -38 -191 -608 -36 -129 -70
-239 -75 -245 -5 -5 -9 -5 -9 -1 0 14 -230 831 -238 845 -12 22 -31 25 -38 7z"/>
<path d="M24237 8474 c-4 -4 -7 -223 -7 -486 0 -451 1 -479 18 -476 16 3 17
33 22 418 l5 415 210 -415 c136 -269 215 -415 225 -415 13 0 15 60 15 480 0
473 0 480 -20 480 -20 0 -20 -8 -23 -415 l-4 -415 -206 414 c-114 228 -212
416 -218 418 -5 2 -13 0 -17 -3z"/>
<path d="M10785 8458 c-3 -7 -4 -222 -3 -478 3 -457 3 -465 23 -465 20 0 20 8
25 398 l5 398 129 -353 c156 -425 161 -438 180 -438 9 0 30 45 60 128 26 70
91 246 144 391 l97 263 5 -393 c5 -386 5 -394 25 -394 20 0 20 7 20 475 0 468
0 475 -20 475 -17 0 -41 -58 -175 -422 -85 -232 -158 -419 -162 -415 -3 4 -72
187 -152 407 -80 220 -150 407 -155 415 -11 20 -40 25 -46 8z"/>
<path d="M18561 8461 c-8 -5 -11 -16 -8 -25 5 -13 25 -16 122 -16 l115 0 2
-447 c3 -440 3 -448 23 -448 20 0 20 8 23 448 l2 447 115 0 c115 0 138 7 115
35 -10 12 -55 15 -254 15 -132 0 -247 -4 -255 -9z"/>
</g>
</svg>
